<?xml version="1.0" encoding="UTF-8"?>
<svg version="1.1" viewBox="0 0 1133.9 1133.9" xmlns="http://www.w3.org/2000/svg">
<g transform="matrix(1.3333 0 0 -1.3333 0 1133.9)">
<g>
<path d="m439.19 850.01 36.807-116.91 5e-3 -420.73-36.817-61.793 36.802-62.069 0.0102-120.35-36.817-68.545-38.544 68.579 0.0252 120.35 38.524 62.035-38.549 61.836v418.2l38.554 119.39z" fill="#d1d3d4" fill-rule="evenodd" stroke="#2e3092" stroke-miterlimit="22.926" stroke-width=".2835"/>
<path d="m622.25 207.1" fill="#231f20" fill-rule="evenodd" stroke="#231f20" stroke-miterlimit="22.926" stroke-width=".5669"/>
<path d="m439.19 250.59 36.804-62.073c499.92-47.756 462.43-64.331 105.47 59.529-13.693-3.8151-27.926-7.8349-42.697-12.07l-0.1621-0.0467c-19.081-5.6296-39-11.638-59.433-17.373l-39.978 32.034-5e-3 6e-3v-6e-3z" fill="#d1d3d4" fill-rule="evenodd" stroke="#2e3092" stroke-miterlimit="22.926" stroke-width=".2835"/>
<path d="m439.19 251.25 36.822 61.128 321.75 0.5425c53.549 0.0876-48.464-16.591-258.77-76.879 14.703 4.3345 28.905 8.43 42.458 12-31.272 11.312-64.366 21.942-100.71 35.745l-41.155-32.868z" fill="#d1d3d4" fill-rule="evenodd" stroke="#2e3092" stroke-miterlimit="22.926" stroke-width=".2835"/>
<path d="m491.86 439.01c1.885 0 2.8272-1.2229 2.8272-3.6689v-117.74c0-2.446-0.9422-3.6689-2.8272-3.6689h-12.593c-1.8848 0-2.8273 1.2229-2.8273 3.6689v117.74c0 2.446 0.9425 3.6689 2.8273 3.6689z" fill="#2e3092"/>
<path d="m576.42 405.49c4.3693 0 7.9889-0.4725 10.859-1.4176 2.8697-0.945 5.14-2.5013 6.8105-4.6695 1.6707-2.1679 2.8485-5.0028 3.5339-8.505 0.6854-3.502 1.0282-7.7545 1.0282-12.758v-15.843c0-3.5575-0.5999-6.0313-1.7992-7.4211-1.1993-1.3895-3.0413-2.0846-5.5256-2.0846h-64.894v-4.0022c0-5.2254 0.9635-9.0054 2.8914-11.34 1.9272-2.3346 5.6755-3.5019 11.244-3.5019h53.586c1.5421 0 2.3131-1.0007 2.3131-3.0019v-14.008c0-2.0012-0.771-3.0019-2.3131-3.0019h-55.385c-5.8252 0-10.687 0.6115-14.585 1.8343-3.8979 1.2232-7.0248 3.1967-9.3807 5.9205s-4.0479 6.2257-5.0757 10.506c-1.0281 4.2806-1.5423 9.4224-1.5423 15.426v24.014c0 6.0035 0.5142 11.146 1.5423 15.426 1.0278 4.2803 2.7198 7.7825 5.0757 10.506s5.4828 4.7251 9.3807 6.0035c3.8979 1.2787 8.7599 1.9179 14.585 1.9179zm-49.988-37.856h52.044c1.4565 0 2.1847 0.9451 2.1847 2.8352v7.0042c0 3.4466-0.557 5.8923-1.6707 7.3377-1.1138 1.4454-3.1698 2.168-6.1682 2.168h-32.254c-5.5684 0-9.3167-1.1396-11.244-3.4186-1.9279-2.2794-2.8914-6.0871-2.8914-11.424z" fill="#2e3092"/>
<path d="m678.58 405.49c1.5421 0 2.3134-1.0006 2.3134-3.0018v-14.008c0-2.0013-0.7713-3.0019-2.3134-3.0019h-34.182c-2.7414 0-5.0117-0.3056-6.8106-0.9173-1.7991-0.6114-3.234-1.612-4.3049-3.0016-1.071-1.3898-1.8204-3.2797-2.2488-5.6701-0.4286-2.3902-0.6426-5.3088-0.6426-8.7554v-49.53c0-2.446-0.9422-3.6689-2.827-3.6689h-12.593c-1.9704 0-2.9554 1.2229-2.9554 3.6689v54.032c0 6.0035 0.5139 11.146 1.542 15.426 1.0278 4.2803 2.7198 7.7825 5.0757 10.506s5.4831 4.7251 9.3807 6.0035c3.8982 1.2787 8.7599 1.9179 14.585 1.9179z" fill="#2e3092"/>
<path d="m766.22 430.67c6.5106 0 12.058-0.8059 16.641-2.4179 4.5833-1.6121 8.3097-4.1692 11.18-7.6714 2.8698-3.502 4.9473-8.0326 6.2323-13.591 1.2849-5.559 1.9275-12.341 1.9275-20.346v-28.684c0-8.0047-0.6426-14.814-1.9275-20.429-1.285-5.6146-3.3625-10.173-6.2323-13.675-2.8701-3.5022-6.5965-6.0315-11.18-7.588-4.5834-1.5566-10.13-2.3347-16.641-2.3347h-39.708c-6.5106 0-12.036 0.7781-16.577 2.3347-4.5403 1.5565-8.2454 4.0858-11.116 7.588-2.8698 3.5019-4.9689 8.0603-6.2966 13.675-1.328 5.6143-1.9919 12.424-1.9919 20.429v28.684c0 8.0048 0.6639 14.787 1.9919 20.346 1.3277 5.5587 3.4268 10.089 6.2966 13.591 2.8701 3.5022 6.5752 6.0593 11.116 7.6714 4.5405 1.612 10.066 2.4179 16.577 2.4179zm-56.028-70.876c0-4.3361 0.2787-7.977 0.8357-10.923 0.5567-2.9463 1.4777-5.2809 2.7626-7.0041 1.285-1.7232 3.02-2.9463 5.2044-3.6689 2.1844-0.7228 4.9473-1.084 8.2885-1.084h38.165c3.3412 0 6.1041 0.3612 8.2885 1.084 2.1847 0.7226 3.9195 1.9457 5.2044 3.6689 1.285 1.7232 2.2059 4.0578 2.7629 7.0041 0.5568 2.9463 0.8354 6.5872 0.8354 10.923v25.015c0 4.3359-0.2786 7.977-0.8354 10.923-0.557 2.9461-1.4779 5.2807-2.7629 7.0042-1.2849 1.7231-3.0197 2.946-5.2044 3.6688-2.1844 0.7226-4.9473 1.084-8.2885 1.084h-38.165c-3.3412 0-6.1041-0.3614-8.2885-1.084-2.1844-0.7228-3.9194-1.9457-5.2044-3.6688-1.2849-1.7235-2.2059-4.0581-2.7626-7.0042-0.557-2.9463-0.8357-6.5874-0.8357-10.923z" fill="#2e3092"/>
<path d="m439.18 250.58-38.513-62.032c-533.68-47.728-494.7-64.366-114.15 59.244h9e-3l1.4743-0.3909 0.0946-0.0236 1.3933-0.3673 0.1938-0.0468 1.3119-0.3501 0.2753-0.07 1.2444-0.3325 0.3515-0.0876c25.925-6.8547 58.274-15.565 88.216-23.867l0.8793-0.2389 0.8881-0.2509 0.9423-0.2568 0.8161-0.2333 1.019-0.2801 0.735-0.2041 1.1044-0.3092 0.6449-0.1809 1.1993-0.3325 0.5409-0.1516 1.3076-0.3617 0.4238-0.1228 1.4292-0.3966 0.2977-0.0875 1.5599-0.4318 0.1533-0.0465 1.7087-0.4784 42.449 32.687z" fill="#d1d3d4" fill-rule="evenodd" stroke="#2e3092" stroke-miterlimit="22.926" stroke-width=".2835"/>
<path d="m439.19 250.59-38.558 61.828-342.26-0.1576c-52.747-0.0176 36.66-14.299 228.15-64.471 31.268 11.312 71.882 22.157 108.22 35.96l44.442-33.166 5e-3 6e-3z" fill="#d1d3d4" fill-rule="evenodd" stroke="#2e3092" stroke-miterlimit="22.926" stroke-width=".2835"/>
<path d="m127.81 435.83c1.6161 0 2.4242-1.2645 2.4242-3.7936v-16.899c0-2.6441-0.8081-3.9662-2.4242-3.9662h-49.033c-2.8647 0-5.2339-0.3736-7.107-1.1208-1.8732-0.7473-3.3605-2.0118-4.4626-3.7939-1.1018-1.7819-1.8916-4.1672-2.3689-7.1561-0.4774-2.9891-0.7163-6.7827-0.7163-11.381v-24.486c0-4.5987 0.2389-8.4209 0.7163-11.467 0.4773-3.0467 1.2671-5.4607 2.3689-7.2425 1.1021-1.7819 2.5894-3.0467 4.4626-3.7939 1.8731-0.7472 4.2423-1.1208 7.107-1.1208h49.033c1.6161 0 2.4242-1.2646 2.4242-3.7936v-16.899c0-2.5291-0.8081-3.7936-2.4242-3.7936h-49.694c-5.5828 0-10.321 0.8047-14.214 2.4142-3.8934 1.6093-7.0702 4.2248-9.5312 7.846-2.4608 3.6213-4.2605 8.3345-5.3992 14.14-1.1386 5.8054-1.7078 12.847-1.7078 21.124v29.66c0 8.2772 0.5692 15.29 1.7078 21.038 1.1387 5.7481 2.9384 10.433 5.3992 14.054 2.461 3.6213 5.6378 6.2654 9.5312 7.9325 3.8934 1.6668 8.6312 2.5001 14.214 2.5001z" fill="#2e3092"/>
<path d="m198.11 409.8c4.9218 0 9.072-0.6611 12.451-1.9832 3.3792-1.3218 6.0789-3.3911 8.0989-6.2078 2.0202-2.8165 3.4707-6.4378 4.3523-10.864 0.8816-4.4261 1.3224-9.743 1.3224-15.951v-24.832c0-6.2078-0.4408-11.525-1.3224-15.951s-2.3321-8.047-4.3523-10.864c-2.02-2.8165-4.7197-4.8569-8.0989-6.1214-3.3789-1.2645-7.5291-1.8969-12.451-1.8969h-31.183c-4.9952 0-9.1638 0.6324-12.506 1.8969-3.3424 1.2645-6.0237 3.3049-8.0436 6.1214-2.0203 2.8168-3.4711 6.4378-4.3523 10.864-0.8816 4.426-1.3224 9.743-1.3224 15.951v24.832c0 6.2079 0.4408 11.525 1.3224 15.951 0.8812 4.4257 2.332 8.047 4.3523 10.864 2.0199 2.8167 4.7012 4.886 8.0436 6.2078 3.3423 1.3221 7.5109 1.9832 12.506 1.9832zm-41.65-55.526c0-3.6786 0.1836-6.7252 0.551-9.1392 0.3671-2.4143 1.01-4.3399 1.9281-5.7767 0.9182-1.4372 2.1487-2.4719 3.6913-3.104 1.5426-0.6324 3.4892-0.9485 5.8399-0.9485h28.098c2.4242 0 4.4076 0.3161 5.9499 0.9485 1.5429 0.6321 2.7732 1.6668 3.6913 3.104 0.9184 1.4368 1.5611 3.3624 1.9284 5.7767 0.3674 2.414 0.5511 5.4606 0.5511 9.1392v16.382c0 3.5638-0.1837 6.5529-0.5511 8.9669-0.3673 2.4143-1.01 4.3685-1.9284 5.8629-0.9181 1.4947-2.1484 2.5293-3.6913 3.1039-1.5423 0.5749-3.5257 0.8623-5.9499 0.8623h-28.098c-2.3507 0-4.2973-0.2874-5.8399-0.8623-1.5426-0.5746-2.7731-1.6092-3.6913-3.1039-0.9181-1.4944-1.561-3.4486-1.9281-5.8629-0.3674-2.414-0.551-5.4031-0.551-8.9669z" fill="#2e3092"/>
<path d="m243.28 409.8c1.249 0 2.1303-0.8048 2.6445-2.414l25.894-71.218c0.2937-0.6899 0.6979-1.0346 1.2121-1.0346h0.4405c0.5145 0 0.9184 0.3447 1.2124 1.0346l26.004 71.218c0.2936 0.8044 0.6242 1.4082 0.9915 1.8105 0.3674 0.4025 0.9185 0.6035 1.6529 0.6035h12.231c0.8081 0 1.3407-0.4312 1.5979-1.2932 0.2571-0.8623 0.2018-1.868-0.1653-3.0178l-30.191-82.599c-1.0284-2.874-2.2036-4.8858-3.526-6.0355-1.322-1.1495-3.232-1.7243-5.7296-1.7243h-9.0355c-2.4239 0-4.2973 0.5748-5.6194 1.7243-1.3223 1.1497-2.4976 3.1615-3.526 6.0355l-30.191 82.599c-0.3674 1.1498-0.4224 2.1555-0.1656 3.0178 0.2574 0.862 0.7897 1.2932 1.5979 1.2932z" fill="#2e3092"/>
<path d="m374.41 409.8c4.9215 0 9.072-0.6611 12.451-1.9832 3.3789-1.3218 6.0783-3.3911 8.0986-6.2078 2.02-2.8165 3.471-6.4378 4.3523-10.864 0.8816-4.4261 1.3224-9.743 1.3224-15.951v-45.869c0-2.7592-0.1284-5.0295-0.3858-6.8116-0.2571-1.7819-0.6979-3.1901-1.3221-4.2248-0.6245-1.0346-1.4511-1.7529-2.4792-2.1554-1.0284-0.4023-2.3507-0.6035-3.9668-0.6035h-52.449c-3.232 0-5.9317 0.4887-8.0988 1.4658-2.1668 0.9771-3.9116 2.4429-5.2336 4.3971-1.3224 1.9544-2.259 4.4835-2.81 7.5875-0.5508 3.1039-0.8263 6.7827-0.8263 11.036v8.2771c0 3.5638 0.2755 6.7539 0.8263 9.5704 0.551 2.8168 1.4876 5.2021 2.81 7.1563 1.322 1.9545 3.0668 3.4203 5.2336 4.3974 2.1671 0.9771 4.8668 1.4658 8.0988 1.4658h44.846v3.2763c0 2.7589-0.1837 5.1157-0.551 7.0699-0.3674 1.9545-0.9916 3.5351-1.8732 4.7423-0.8815 1.207-2.0936 2.098-3.636 2.6728-1.5429 0.5749-3.526 0.862-5.9502 0.862h-46.058c-1.322 0-1.9834 1.0347-1.9834 3.104v14.485c0 2.0693 0.6614 3.104 1.9834 3.104zm7.2723-75.701c1.1753 0 2.0018 0.4308 2.4792 1.2931 0.4776 0.8623 0.7163 2.3854 0.7163 4.5698v15.175h-40.328c-2.2771 0-3.8749-0.7186-4.7931-2.1555-0.9181-1.4372-1.3773-3.5351-1.3773-6.294v-3.6213c0-3.1039 0.4592-5.3745 1.3773-6.8114 0.9182-1.4371 2.516-2.1554 4.7931-2.1554z" fill="#2e3092"/>
</g>
</g>
</svg>
